<svg xmlns="http://www.w3.org/2000/svg" width="180" height="32.1"><path d="M0 .5h2.3v30.8H0V.5zm18.1 2.1H7.3V.5h23.8v2.1H20.4v28.7h-2.3V2.6z" fill="#ca0003"/><path d="M35 .5h12.6c7.3 0 11.8 4.4 11.8 10.7 0 7.1-5.5 10.8-12.5 10.8h-5.1v9.2H35V.5zM47.1 16c3.4 0 5.4-2 5.4-4.8 0-3-2.1-4.7-5.5-4.7h-5.2V16h5.3zM62.2.5h14.1c3.9 0 7 1.1 9 3.1 1.7 1.7 2.6 4.1 2.6 7.1 0 5-2.7 8.1-6.6 9.5l7.5 11h-7.9l-6.7-9.9H69v9.9h-6.8V.5zm13.6 15c3.3 0 5.2-1.8 5.2-4.4 0-2.9-2-4.4-5.3-4.4H69v8.8h6.8zM127 .5h14.3c3.5 0 6.3 1 8.1 2.7 1.4 1.4 2.1 3.1 2.1 5.3 0 3.5-1.8 5.4-4 6.6 3.6 1.4 5.8 3.4 5.8 7.7 0 5.6-4.6 8.4-11.5 8.4H127V.5zM139.8 13c3 0 4.9-1 4.9-3.3 0-2-1.6-3.2-4.4-3.2h-6.7V13h6.2zm1.8 12.4c3 0 4.8-1.1 4.8-3.4 0-2.1-1.5-3.3-5-3.3h-7.8v6.8h8zM156.5.5h23.2v6h-16.5v6.2h14.5v6h-14.5v6.5H180v6h-23.5V.5zm-38.4 4.2c-6.3-6.3-16.4-6.3-22.7 0s-6.3 16.4 0 22.7 16.4 6.3 22.7 0c6.3-6.3 6.3-16.4 0-22.7zM97.6 25.8c-.2.2-.4.1-.6 0-.1-.2-.1-.4 0-.6l9.5-10 .2.2c.2.3.5.5.7.7l.2.2-10 9.5zm8.8 4.5s-.1 0-.1-.1c-.1-.1-.2-.3-.1-.5l6.3-13.7-1.4 1.1h-.1c-.9-.1-1.8-.5-2.6-1-1.5-1-2.4-2.5-2.7-4.3v-.1l1.1-1.4-13.7 6.3c-.2.1-.5 0-.5-.2-.1-.2 0-.4.2-.5L105.9 9c.2-.6.5-1.2.8-1.8 1-1.4 2.4-2.4 4.1-2.7 1.7-.3 3.4 0 4.8 1 .3.2.7.5.9.8 2.2 2.2 2.5 5.6.8 8.1-.8 1.2-2.1 2.1-3.5 2.5L107 30.1c-.1.2-.4.3-.6.2z" fill="#fff"/></svg>